<mxfile host="app.diagrams.net" modified="2023-11-22T03:41:12.773Z" agent="Mozilla/5.0 (Windows NT 10.0; Win64; x64) AppleWebKit/537.36 (KHTML, like Gecko) Chrome/119.0.0.0 Safari/537.36 Edg/119.0.0.0" etag="n6iI_CkhfVQ8uz4H1ooq" version="22.1.3" type="github">
  <diagram name="第 1 页" id="4_94PNMfEA7NHkWuwk7g">
    <mxGraphModel dx="2084" dy="1070" grid="1" gridSize="10" guides="1" tooltips="1" connect="1" arrows="1" fold="1" page="1" pageScale="1" pageWidth="827" pageHeight="1169" math="0" shadow="0">
      <root>
        <mxCell id="0" />
        <mxCell id="1" parent="0" />
        <mxCell id="PcMFCGU954VmmF4n1X1V-1" value="" style="rounded=0;html=1;jettySize=auto;orthogonalLoop=1;fontSize=11;endArrow=block;endFill=0;endSize=8;strokeWidth=1;shadow=0;labelBackgroundColor=none;edgeStyle=orthogonalEdgeStyle;" edge="1" parent="1" source="PcMFCGU954VmmF4n1X1V-2" target="PcMFCGU954VmmF4n1X1V-5">
          <mxGeometry relative="1" as="geometry" />
        </mxCell>
        <mxCell id="PcMFCGU954VmmF4n1X1V-2" value="int y ,int m,int d" style="rounded=1;whiteSpace=wrap;html=1;fontSize=12;glass=0;strokeWidth=1;shadow=0;" vertex="1" parent="1">
          <mxGeometry x="160" y="80" width="120" height="40" as="geometry" />
        </mxCell>
        <mxCell id="PcMFCGU954VmmF4n1X1V-3" value="F" style="rounded=0;html=1;jettySize=auto;orthogonalLoop=1;fontSize=11;endArrow=block;endFill=0;endSize=8;strokeWidth=1;shadow=0;labelBackgroundColor=none;edgeStyle=orthogonalEdgeStyle;" edge="1" parent="1">
          <mxGeometry x="-0.7333" y="10" relative="1" as="geometry">
            <mxPoint as="offset" />
            <mxPoint x="220" y="210" as="sourcePoint" />
            <mxPoint x="220" y="285" as="targetPoint" />
          </mxGeometry>
        </mxCell>
        <mxCell id="PcMFCGU954VmmF4n1X1V-4" value="T" style="edgeStyle=orthogonalEdgeStyle;rounded=0;html=1;jettySize=auto;orthogonalLoop=1;fontSize=11;endArrow=block;endFill=0;endSize=8;strokeWidth=1;shadow=0;labelBackgroundColor=none;" edge="1" parent="1" source="PcMFCGU954VmmF4n1X1V-5" target="PcMFCGU954VmmF4n1X1V-7">
          <mxGeometry x="-1" y="10" relative="1" as="geometry">
            <mxPoint as="offset" />
          </mxGeometry>
        </mxCell>
        <mxCell id="PcMFCGU954VmmF4n1X1V-5" value="y&amp;lt;1" style="rhombus;whiteSpace=wrap;html=1;shadow=0;fontFamily=Helvetica;fontSize=12;align=center;strokeWidth=1;spacing=6;spacingTop=-4;" vertex="1" parent="1">
          <mxGeometry x="170" y="170" width="100" height="40" as="geometry" />
        </mxCell>
        <mxCell id="PcMFCGU954VmmF4n1X1V-6" style="edgeStyle=orthogonalEdgeStyle;rounded=0;orthogonalLoop=1;jettySize=auto;html=1;" edge="1" parent="1" source="PcMFCGU954VmmF4n1X1V-7" target="PcMFCGU954VmmF4n1X1V-28">
          <mxGeometry relative="1" as="geometry" />
        </mxCell>
        <mxCell id="PcMFCGU954VmmF4n1X1V-7" value="return false;" style="rounded=1;whiteSpace=wrap;html=1;fontSize=12;glass=0;strokeWidth=1;shadow=0;" vertex="1" parent="1">
          <mxGeometry x="320" y="170" width="120" height="40" as="geometry" />
        </mxCell>
        <mxCell id="PcMFCGU954VmmF4n1X1V-8" value="" style="rounded=0;html=1;jettySize=auto;orthogonalLoop=1;fontSize=11;endArrow=block;endFill=0;endSize=8;strokeWidth=1;shadow=0;labelBackgroundColor=none;edgeStyle=orthogonalEdgeStyle;" edge="1" parent="1" source="PcMFCGU954VmmF4n1X1V-10" target="PcMFCGU954VmmF4n1X1V-12">
          <mxGeometry x="-0.4545" y="20" relative="1" as="geometry">
            <mxPoint as="offset" />
          </mxGeometry>
        </mxCell>
        <mxCell id="PcMFCGU954VmmF4n1X1V-9" style="edgeStyle=orthogonalEdgeStyle;rounded=0;orthogonalLoop=1;jettySize=auto;html=1;exitX=1;exitY=0.5;exitDx=0;exitDy=0;entryX=0.5;entryY=0;entryDx=0;entryDy=0;" edge="1" parent="1" source="PcMFCGU954VmmF4n1X1V-10" target="PcMFCGU954VmmF4n1X1V-15">
          <mxGeometry relative="1" as="geometry">
            <Array as="points">
              <mxPoint x="315" y="330" />
              <mxPoint x="315" y="490" />
              <mxPoint x="220" y="490" />
            </Array>
          </mxGeometry>
        </mxCell>
        <mxCell id="PcMFCGU954VmmF4n1X1V-10" value="((y%4==0)&amp;amp;&amp;amp;(y%100!=0))||(y%400==0)" style="rhombus;whiteSpace=wrap;html=1;shadow=0;fontFamily=Helvetica;fontSize=12;align=center;strokeWidth=1;spacing=6;spacingTop=-4;" vertex="1" parent="1">
          <mxGeometry x="145" y="285" width="150" height="90" as="geometry" />
        </mxCell>
        <mxCell id="PcMFCGU954VmmF4n1X1V-11" value="" style="edgeStyle=orthogonalEdgeStyle;rounded=0;orthogonalLoop=1;jettySize=auto;html=1;" edge="1" parent="1" source="PcMFCGU954VmmF4n1X1V-12" target="PcMFCGU954VmmF4n1X1V-15">
          <mxGeometry relative="1" as="geometry" />
        </mxCell>
        <mxCell id="PcMFCGU954VmmF4n1X1V-12" value="maxA[1]=29;" style="rounded=1;whiteSpace=wrap;html=1;fontSize=12;glass=0;strokeWidth=1;shadow=0;" vertex="1" parent="1">
          <mxGeometry x="160" y="430" width="120" height="40" as="geometry" />
        </mxCell>
        <mxCell id="PcMFCGU954VmmF4n1X1V-13" value="" style="edgeStyle=orthogonalEdgeStyle;rounded=0;orthogonalLoop=1;jettySize=auto;html=1;" edge="1" parent="1" source="PcMFCGU954VmmF4n1X1V-15" target="PcMFCGU954VmmF4n1X1V-18">
          <mxGeometry relative="1" as="geometry" />
        </mxCell>
        <mxCell id="PcMFCGU954VmmF4n1X1V-14" value="" style="edgeStyle=orthogonalEdgeStyle;rounded=0;orthogonalLoop=1;jettySize=auto;html=1;" edge="1" parent="1" source="PcMFCGU954VmmF4n1X1V-15" target="PcMFCGU954VmmF4n1X1V-21">
          <mxGeometry relative="1" as="geometry" />
        </mxCell>
        <mxCell id="PcMFCGU954VmmF4n1X1V-15" value="m&amp;lt;0||m&amp;gt;12" style="rhombus;whiteSpace=wrap;html=1;rounded=1;glass=0;strokeWidth=1;shadow=0;" vertex="1" parent="1">
          <mxGeometry x="165" y="520" width="110" height="50" as="geometry" />
        </mxCell>
        <mxCell id="PcMFCGU954VmmF4n1X1V-16" value="T" style="text;html=1;align=center;verticalAlign=middle;resizable=0;points=[];autosize=1;strokeColor=none;fillColor=none;" vertex="1" parent="1">
          <mxGeometry x="265" y="520" width="30" height="30" as="geometry" />
        </mxCell>
        <mxCell id="PcMFCGU954VmmF4n1X1V-17" style="edgeStyle=orthogonalEdgeStyle;rounded=0;orthogonalLoop=1;jettySize=auto;html=1;" edge="1" parent="1" source="PcMFCGU954VmmF4n1X1V-18" target="PcMFCGU954VmmF4n1X1V-28">
          <mxGeometry relative="1" as="geometry" />
        </mxCell>
        <mxCell id="PcMFCGU954VmmF4n1X1V-18" value="return false;" style="whiteSpace=wrap;html=1;rounded=1;glass=0;strokeWidth=1;shadow=0;" vertex="1" parent="1">
          <mxGeometry x="350" y="527.5" width="90" height="35" as="geometry" />
        </mxCell>
        <mxCell id="PcMFCGU954VmmF4n1X1V-19" value="" style="edgeStyle=orthogonalEdgeStyle;rounded=0;orthogonalLoop=1;jettySize=auto;html=1;" edge="1" parent="1" source="PcMFCGU954VmmF4n1X1V-21" target="PcMFCGU954VmmF4n1X1V-23">
          <mxGeometry relative="1" as="geometry" />
        </mxCell>
        <mxCell id="PcMFCGU954VmmF4n1X1V-20" style="edgeStyle=orthogonalEdgeStyle;rounded=0;orthogonalLoop=1;jettySize=auto;html=1;entryX=0.5;entryY=1;entryDx=0;entryDy=0;" edge="1" parent="1" source="PcMFCGU954VmmF4n1X1V-21" target="PcMFCGU954VmmF4n1X1V-18">
          <mxGeometry relative="1" as="geometry" />
        </mxCell>
        <mxCell id="PcMFCGU954VmmF4n1X1V-21" value="d&amp;gt;maxA[m-1]" style="rhombus;whiteSpace=wrap;html=1;rounded=1;glass=0;strokeWidth=1;shadow=0;" vertex="1" parent="1">
          <mxGeometry x="165" y="608" width="110" height="50" as="geometry" />
        </mxCell>
        <mxCell id="PcMFCGU954VmmF4n1X1V-22" style="edgeStyle=orthogonalEdgeStyle;rounded=0;orthogonalLoop=1;jettySize=auto;html=1;exitX=1;exitY=0.5;exitDx=0;exitDy=0;" edge="1" parent="1" source="PcMFCGU954VmmF4n1X1V-23" target="PcMFCGU954VmmF4n1X1V-28">
          <mxGeometry relative="1" as="geometry" />
        </mxCell>
        <mxCell id="PcMFCGU954VmmF4n1X1V-23" value="return true;" style="whiteSpace=wrap;html=1;rounded=1;glass=0;strokeWidth=1;shadow=0;" vertex="1" parent="1">
          <mxGeometry x="165" y="690" width="110" height="35" as="geometry" />
        </mxCell>
        <mxCell id="PcMFCGU954VmmF4n1X1V-24" value="F" style="text;html=1;align=center;verticalAlign=middle;resizable=0;points=[];autosize=1;strokeColor=none;fillColor=none;" vertex="1" parent="1">
          <mxGeometry x="215" y="628" width="30" height="30" as="geometry" />
        </mxCell>
        <mxCell id="PcMFCGU954VmmF4n1X1V-25" value="T" style="text;html=1;align=center;verticalAlign=middle;resizable=0;points=[];autosize=1;strokeColor=none;fillColor=none;" vertex="1" parent="1">
          <mxGeometry x="265" y="608" width="30" height="30" as="geometry" />
        </mxCell>
        <mxCell id="PcMFCGU954VmmF4n1X1V-26" value="F" style="text;html=1;align=center;verticalAlign=middle;resizable=0;points=[];autosize=1;strokeColor=none;fillColor=none;" vertex="1" parent="1">
          <mxGeometry x="215" y="558" width="30" height="30" as="geometry" />
        </mxCell>
        <mxCell id="PcMFCGU954VmmF4n1X1V-27" value="T" style="text;html=1;align=center;verticalAlign=middle;resizable=0;points=[];autosize=1;strokeColor=none;fillColor=none;" vertex="1" parent="1">
          <mxGeometry x="215" y="368" width="30" height="30" as="geometry" />
        </mxCell>
        <mxCell id="PcMFCGU954VmmF4n1X1V-28" value="end" style="strokeWidth=2;html=1;shape=mxgraph.flowchart.terminator;whiteSpace=wrap;" vertex="1" parent="1">
          <mxGeometry x="450" y="328" width="75" height="40" as="geometry" />
        </mxCell>
        <mxCell id="PcMFCGU954VmmF4n1X1V-29" style="edgeStyle=orthogonalEdgeStyle;rounded=0;orthogonalLoop=1;jettySize=auto;html=1;exitX=0.5;exitY=1;exitDx=0;exitDy=0;curved=1;" edge="1" parent="1" source="PcMFCGU954VmmF4n1X1V-30" target="PcMFCGU954VmmF4n1X1V-36">
          <mxGeometry relative="1" as="geometry" />
        </mxCell>
        <mxCell id="PcMFCGU954VmmF4n1X1V-30" value="1" style="ellipse;whiteSpace=wrap;html=1;" vertex="1" parent="1">
          <mxGeometry x="750" y="120" width="60" height="40" as="geometry" />
        </mxCell>
        <mxCell id="PcMFCGU954VmmF4n1X1V-31" style="edgeStyle=orthogonalEdgeStyle;rounded=0;orthogonalLoop=1;jettySize=auto;html=1;exitX=0.5;exitY=1;exitDx=0;exitDy=0;curved=1;" edge="1" parent="1" source="PcMFCGU954VmmF4n1X1V-33" target="PcMFCGU954VmmF4n1X1V-40">
          <mxGeometry relative="1" as="geometry" />
        </mxCell>
        <mxCell id="PcMFCGU954VmmF4n1X1V-32" style="edgeStyle=orthogonalEdgeStyle;rounded=0;orthogonalLoop=1;jettySize=auto;html=1;exitX=1;exitY=0.5;exitDx=0;exitDy=0;curved=1;" edge="1" parent="1" source="PcMFCGU954VmmF4n1X1V-33" target="PcMFCGU954VmmF4n1X1V-43">
          <mxGeometry relative="1" as="geometry">
            <Array as="points">
              <mxPoint x="770" y="265" />
              <mxPoint x="770" y="360" />
              <mxPoint x="720" y="360" />
            </Array>
          </mxGeometry>
        </mxCell>
        <mxCell id="PcMFCGU954VmmF4n1X1V-33" value="3" style="ellipse;whiteSpace=wrap;html=1;" vertex="1" parent="1">
          <mxGeometry x="690" y="245" width="60" height="40" as="geometry" />
        </mxCell>
        <mxCell id="PcMFCGU954VmmF4n1X1V-34" style="edgeStyle=orthogonalEdgeStyle;rounded=0;orthogonalLoop=1;jettySize=auto;html=1;exitX=0;exitY=0.5;exitDx=0;exitDy=0;curved=1;" edge="1" parent="1" source="PcMFCGU954VmmF4n1X1V-36" target="PcMFCGU954VmmF4n1X1V-33">
          <mxGeometry relative="1" as="geometry" />
        </mxCell>
        <mxCell id="PcMFCGU954VmmF4n1X1V-35" style="edgeStyle=orthogonalEdgeStyle;rounded=0;orthogonalLoop=1;jettySize=auto;html=1;exitX=1;exitY=0.5;exitDx=0;exitDy=0;entryX=0.5;entryY=0;entryDx=0;entryDy=0;curved=1;" edge="1" parent="1" source="PcMFCGU954VmmF4n1X1V-36" target="PcMFCGU954VmmF4n1X1V-38">
          <mxGeometry relative="1" as="geometry" />
        </mxCell>
        <mxCell id="PcMFCGU954VmmF4n1X1V-36" value="2" style="ellipse;whiteSpace=wrap;html=1;" vertex="1" parent="1">
          <mxGeometry x="750" y="180" width="60" height="40" as="geometry" />
        </mxCell>
        <mxCell id="PcMFCGU954VmmF4n1X1V-37" style="edgeStyle=orthogonalEdgeStyle;rounded=0;orthogonalLoop=1;jettySize=auto;html=1;exitX=1;exitY=0.5;exitDx=0;exitDy=0;curved=1;" edge="1" parent="1" source="PcMFCGU954VmmF4n1X1V-38" target="PcMFCGU954VmmF4n1X1V-51">
          <mxGeometry relative="1" as="geometry" />
        </mxCell>
        <mxCell id="PcMFCGU954VmmF4n1X1V-38" value="4" style="ellipse;whiteSpace=wrap;html=1;" vertex="1" parent="1">
          <mxGeometry x="820" y="245" width="60" height="40" as="geometry" />
        </mxCell>
        <mxCell id="PcMFCGU954VmmF4n1X1V-39" style="edgeStyle=orthogonalEdgeStyle;rounded=0;orthogonalLoop=1;jettySize=auto;html=1;exitX=0.5;exitY=1;exitDx=0;exitDy=0;entryX=0.5;entryY=0;entryDx=0;entryDy=0;curved=1;" edge="1" parent="1" source="PcMFCGU954VmmF4n1X1V-40" target="PcMFCGU954VmmF4n1X1V-43">
          <mxGeometry relative="1" as="geometry" />
        </mxCell>
        <mxCell id="PcMFCGU954VmmF4n1X1V-40" value="5" style="ellipse;whiteSpace=wrap;html=1;" vertex="1" parent="1">
          <mxGeometry x="690" y="310" width="60" height="40" as="geometry" />
        </mxCell>
        <mxCell id="PcMFCGU954VmmF4n1X1V-41" style="edgeStyle=orthogonalEdgeStyle;rounded=0;orthogonalLoop=1;jettySize=auto;html=1;exitX=0.5;exitY=1;exitDx=0;exitDy=0;entryX=0.5;entryY=0;entryDx=0;entryDy=0;curved=1;" edge="1" parent="1" source="PcMFCGU954VmmF4n1X1V-43" target="PcMFCGU954VmmF4n1X1V-46">
          <mxGeometry relative="1" as="geometry" />
        </mxCell>
        <mxCell id="PcMFCGU954VmmF4n1X1V-42" style="edgeStyle=orthogonalEdgeStyle;rounded=0;orthogonalLoop=1;jettySize=auto;html=1;exitX=1;exitY=0.5;exitDx=0;exitDy=0;entryX=0;entryY=0.5;entryDx=0;entryDy=0;curved=1;" edge="1" parent="1" source="PcMFCGU954VmmF4n1X1V-43" target="PcMFCGU954VmmF4n1X1V-48">
          <mxGeometry relative="1" as="geometry" />
        </mxCell>
        <mxCell id="PcMFCGU954VmmF4n1X1V-43" value="6" style="ellipse;whiteSpace=wrap;html=1;" vertex="1" parent="1">
          <mxGeometry x="690" y="380" width="60" height="40" as="geometry" />
        </mxCell>
        <mxCell id="PcMFCGU954VmmF4n1X1V-44" style="edgeStyle=orthogonalEdgeStyle;rounded=0;orthogonalLoop=1;jettySize=auto;html=1;exitX=0.5;exitY=1;exitDx=0;exitDy=0;entryX=0.5;entryY=0;entryDx=0;entryDy=0;curved=1;" edge="1" parent="1" source="PcMFCGU954VmmF4n1X1V-46" target="PcMFCGU954VmmF4n1X1V-50">
          <mxGeometry relative="1" as="geometry" />
        </mxCell>
        <mxCell id="PcMFCGU954VmmF4n1X1V-45" style="edgeStyle=orthogonalEdgeStyle;rounded=0;orthogonalLoop=1;jettySize=auto;html=1;curved=1;" edge="1" parent="1" source="PcMFCGU954VmmF4n1X1V-46" target="PcMFCGU954VmmF4n1X1V-48">
          <mxGeometry relative="1" as="geometry" />
        </mxCell>
        <mxCell id="PcMFCGU954VmmF4n1X1V-46" value="7" style="ellipse;whiteSpace=wrap;html=1;" vertex="1" parent="1">
          <mxGeometry x="690" y="450" width="60" height="40" as="geometry" />
        </mxCell>
        <mxCell id="PcMFCGU954VmmF4n1X1V-47" style="edgeStyle=orthogonalEdgeStyle;rounded=0;orthogonalLoop=1;jettySize=auto;html=1;exitX=1;exitY=0.5;exitDx=0;exitDy=0;entryX=0;entryY=0.5;entryDx=0;entryDy=0;curved=1;" edge="1" parent="1" source="PcMFCGU954VmmF4n1X1V-48" target="PcMFCGU954VmmF4n1X1V-51">
          <mxGeometry relative="1" as="geometry" />
        </mxCell>
        <mxCell id="PcMFCGU954VmmF4n1X1V-48" value="8" style="ellipse;whiteSpace=wrap;html=1;" vertex="1" parent="1">
          <mxGeometry x="800" y="380" width="60" height="40" as="geometry" />
        </mxCell>
        <mxCell id="PcMFCGU954VmmF4n1X1V-49" style="edgeStyle=orthogonalEdgeStyle;rounded=0;orthogonalLoop=1;jettySize=auto;html=1;exitX=1;exitY=0.5;exitDx=0;exitDy=0;entryX=0.5;entryY=1;entryDx=0;entryDy=0;curved=1;" edge="1" parent="1" source="PcMFCGU954VmmF4n1X1V-50" target="PcMFCGU954VmmF4n1X1V-51">
          <mxGeometry relative="1" as="geometry" />
        </mxCell>
        <mxCell id="PcMFCGU954VmmF4n1X1V-50" value="9" style="ellipse;whiteSpace=wrap;html=1;" vertex="1" parent="1">
          <mxGeometry x="690" y="515" width="60" height="40" as="geometry" />
        </mxCell>
        <mxCell id="PcMFCGU954VmmF4n1X1V-51" value="结束" style="ellipse;whiteSpace=wrap;html=1;" vertex="1" parent="1">
          <mxGeometry x="900" y="380" width="60" height="40" as="geometry" />
        </mxCell>
        <mxCell id="PcMFCGU954VmmF4n1X1V-52" value="" style="edgeStyle=orthogonalEdgeStyle;rounded=0;orthogonalLoop=1;jettySize=auto;html=1;" edge="1" parent="1" source="PcMFCGU954VmmF4n1X1V-53" target="PcMFCGU954VmmF4n1X1V-58">
          <mxGeometry relative="1" as="geometry" />
        </mxCell>
        <mxCell id="PcMFCGU954VmmF4n1X1V-53" value="&lt;div&gt;totalDays=0;&lt;/div&gt;&lt;div&gt;int i=1&lt;br&gt;&lt;/div&gt;" style="rounded=1;whiteSpace=wrap;html=1;" vertex="1" parent="1">
          <mxGeometry x="185" y="990" width="105" height="40" as="geometry" />
        </mxCell>
        <mxCell id="PcMFCGU954VmmF4n1X1V-54" style="edgeStyle=orthogonalEdgeStyle;rounded=0;orthogonalLoop=1;jettySize=auto;html=1;exitX=0.5;exitY=1;exitDx=0;exitDy=0;entryX=0.5;entryY=0;entryDx=0;entryDy=0;" edge="1" parent="1" source="PcMFCGU954VmmF4n1X1V-55" target="PcMFCGU954VmmF4n1X1V-53">
          <mxGeometry relative="1" as="geometry" />
        </mxCell>
        <mxCell id="PcMFCGU954VmmF4n1X1V-55" value="int y,int m,int d" style="rounded=1;whiteSpace=wrap;html=1;" vertex="1" parent="1">
          <mxGeometry x="185" y="910" width="105" height="40" as="geometry" />
        </mxCell>
        <mxCell id="PcMFCGU954VmmF4n1X1V-56" value="" style="edgeStyle=orthogonalEdgeStyle;rounded=0;orthogonalLoop=1;jettySize=auto;html=1;" edge="1" parent="1" source="PcMFCGU954VmmF4n1X1V-58" target="PcMFCGU954VmmF4n1X1V-61">
          <mxGeometry relative="1" as="geometry" />
        </mxCell>
        <mxCell id="PcMFCGU954VmmF4n1X1V-57" style="edgeStyle=orthogonalEdgeStyle;rounded=0;orthogonalLoop=1;jettySize=auto;html=1;exitX=1;exitY=0.5;exitDx=0;exitDy=0;entryX=0;entryY=0.5;entryDx=0;entryDy=0;" edge="1" parent="1" source="PcMFCGU954VmmF4n1X1V-58" target="PcMFCGU954VmmF4n1X1V-72">
          <mxGeometry relative="1" as="geometry" />
        </mxCell>
        <mxCell id="PcMFCGU954VmmF4n1X1V-58" value="i&amp;lt;y" style="rhombus;whiteSpace=wrap;html=1;rounded=1;" vertex="1" parent="1">
          <mxGeometry x="196.25" y="1060" width="82.5" height="40" as="geometry" />
        </mxCell>
        <mxCell id="PcMFCGU954VmmF4n1X1V-59" style="edgeStyle=orthogonalEdgeStyle;rounded=0;orthogonalLoop=1;jettySize=auto;html=1;exitX=0;exitY=0.5;exitDx=0;exitDy=0;" edge="1" parent="1" source="PcMFCGU954VmmF4n1X1V-61" target="PcMFCGU954VmmF4n1X1V-63">
          <mxGeometry relative="1" as="geometry" />
        </mxCell>
        <mxCell id="PcMFCGU954VmmF4n1X1V-60" style="edgeStyle=orthogonalEdgeStyle;rounded=0;orthogonalLoop=1;jettySize=auto;html=1;exitX=1;exitY=0.5;exitDx=0;exitDy=0;" edge="1" parent="1" source="PcMFCGU954VmmF4n1X1V-61" target="PcMFCGU954VmmF4n1X1V-65">
          <mxGeometry relative="1" as="geometry" />
        </mxCell>
        <mxCell id="PcMFCGU954VmmF4n1X1V-61" value="((i%4==0)&amp;amp;&amp;amp;(i%100!=0))||(i%400==0)" style="rhombus;whiteSpace=wrap;html=1;rounded=1;" vertex="1" parent="1">
          <mxGeometry x="151.25" y="1130" width="172.5" height="70" as="geometry" />
        </mxCell>
        <mxCell id="PcMFCGU954VmmF4n1X1V-62" style="edgeStyle=orthogonalEdgeStyle;rounded=0;orthogonalLoop=1;jettySize=auto;html=1;exitX=0.5;exitY=1;exitDx=0;exitDy=0;entryX=0;entryY=0.5;entryDx=0;entryDy=0;" edge="1" parent="1" source="PcMFCGU954VmmF4n1X1V-63" target="PcMFCGU954VmmF4n1X1V-69">
          <mxGeometry relative="1" as="geometry" />
        </mxCell>
        <mxCell id="PcMFCGU954VmmF4n1X1V-63" value="totalDays+=366;" style="rounded=1;whiteSpace=wrap;html=1;" vertex="1" parent="1">
          <mxGeometry x="70" y="1250" width="105" height="40" as="geometry" />
        </mxCell>
        <mxCell id="PcMFCGU954VmmF4n1X1V-64" style="edgeStyle=orthogonalEdgeStyle;rounded=0;orthogonalLoop=1;jettySize=auto;html=1;exitX=0.5;exitY=1;exitDx=0;exitDy=0;entryX=1;entryY=0.5;entryDx=0;entryDy=0;" edge="1" parent="1" source="PcMFCGU954VmmF4n1X1V-65" target="PcMFCGU954VmmF4n1X1V-69">
          <mxGeometry relative="1" as="geometry" />
        </mxCell>
        <mxCell id="PcMFCGU954VmmF4n1X1V-65" value="totalDays+=365;" style="rounded=1;whiteSpace=wrap;html=1;" vertex="1" parent="1">
          <mxGeometry x="305" y="1250" width="105" height="40" as="geometry" />
        </mxCell>
        <mxCell id="PcMFCGU954VmmF4n1X1V-66" value="T" style="text;html=1;align=center;verticalAlign=middle;resizable=0;points=[];autosize=1;strokeColor=none;fillColor=none;" vertex="1" parent="1">
          <mxGeometry x="135" y="1138" width="30" height="30" as="geometry" />
        </mxCell>
        <mxCell id="PcMFCGU954VmmF4n1X1V-67" value="F" style="text;html=1;align=center;verticalAlign=middle;resizable=0;points=[];autosize=1;strokeColor=none;fillColor=none;" vertex="1" parent="1">
          <mxGeometry x="325" y="1138" width="30" height="30" as="geometry" />
        </mxCell>
        <mxCell id="PcMFCGU954VmmF4n1X1V-68" style="edgeStyle=orthogonalEdgeStyle;rounded=0;orthogonalLoop=1;jettySize=auto;html=1;exitX=0.5;exitY=1;exitDx=0;exitDy=0;entryX=0.5;entryY=0;entryDx=0;entryDy=0;" edge="1" parent="1" source="PcMFCGU954VmmF4n1X1V-69" target="PcMFCGU954VmmF4n1X1V-58">
          <mxGeometry relative="1" as="geometry">
            <Array as="points">
              <mxPoint x="235" y="1360" />
              <mxPoint x="60" y="1360" />
              <mxPoint x="60" y="1040" />
              <mxPoint x="238" y="1040" />
            </Array>
          </mxGeometry>
        </mxCell>
        <mxCell id="PcMFCGU954VmmF4n1X1V-69" value="i++" style="rounded=1;whiteSpace=wrap;html=1;" vertex="1" parent="1">
          <mxGeometry x="210" y="1310" width="50" height="30" as="geometry" />
        </mxCell>
        <mxCell id="PcMFCGU954VmmF4n1X1V-70" value="T" style="text;html=1;align=center;verticalAlign=middle;resizable=0;points=[];autosize=1;strokeColor=none;fillColor=none;" vertex="1" parent="1">
          <mxGeometry x="205" y="1088" width="30" height="30" as="geometry" />
        </mxCell>
        <mxCell id="PcMFCGU954VmmF4n1X1V-71" style="edgeStyle=orthogonalEdgeStyle;rounded=0;orthogonalLoop=1;jettySize=auto;html=1;exitX=1;exitY=1;exitDx=0;exitDy=0;entryX=0.5;entryY=0;entryDx=0;entryDy=0;" edge="1" parent="1" source="PcMFCGU954VmmF4n1X1V-72" target="PcMFCGU954VmmF4n1X1V-78">
          <mxGeometry relative="1" as="geometry">
            <Array as="points">
              <mxPoint x="633" y="1098" />
              <mxPoint x="633" y="1135" />
            </Array>
          </mxGeometry>
        </mxCell>
        <mxCell id="PcMFCGU954VmmF4n1X1V-72" value="((i%4==0)&amp;amp;&amp;amp;(i%100!=0))||(i%400==0)" style="rhombus;whiteSpace=wrap;html=1;rounded=1;" vertex="1" parent="1">
          <mxGeometry x="460" y="1045" width="172.5" height="70" as="geometry" />
        </mxCell>
        <mxCell id="PcMFCGU954VmmF4n1X1V-73" value="F" style="text;html=1;align=center;verticalAlign=middle;resizable=0;points=[];autosize=1;strokeColor=none;fillColor=none;" vertex="1" parent="1">
          <mxGeometry x="275" y="1048" width="30" height="30" as="geometry" />
        </mxCell>
        <mxCell id="PcMFCGU954VmmF4n1X1V-74" value="F" style="text;html=1;align=center;verticalAlign=middle;resizable=0;points=[];autosize=1;strokeColor=none;fillColor=none;" vertex="1" parent="1">
          <mxGeometry x="278.75" y="298" width="30" height="30" as="geometry" />
        </mxCell>
        <mxCell id="PcMFCGU954VmmF4n1X1V-75" style="edgeStyle=orthogonalEdgeStyle;rounded=0;orthogonalLoop=1;jettySize=auto;html=1;exitX=0.5;exitY=1;exitDx=0;exitDy=0;entryX=0;entryY=0.5;entryDx=0;entryDy=0;" edge="1" parent="1" source="PcMFCGU954VmmF4n1X1V-76" target="PcMFCGU954VmmF4n1X1V-83">
          <mxGeometry relative="1" as="geometry" />
        </mxCell>
        <mxCell id="PcMFCGU954VmmF4n1X1V-76" value="maxA[1]=29;" style="rounded=1;whiteSpace=wrap;html=1;" vertex="1" parent="1">
          <mxGeometry x="420" y="1150" width="105" height="40" as="geometry" />
        </mxCell>
        <mxCell id="PcMFCGU954VmmF4n1X1V-77" style="edgeStyle=orthogonalEdgeStyle;rounded=0;orthogonalLoop=1;jettySize=auto;html=1;exitX=0.5;exitY=1;exitDx=0;exitDy=0;entryX=1;entryY=0.5;entryDx=0;entryDy=0;" edge="1" parent="1" source="PcMFCGU954VmmF4n1X1V-78" target="PcMFCGU954VmmF4n1X1V-83">
          <mxGeometry relative="1" as="geometry" />
        </mxCell>
        <mxCell id="PcMFCGU954VmmF4n1X1V-78" value="maxA[1]=28;" style="rounded=1;whiteSpace=wrap;html=1;" vertex="1" parent="1">
          <mxGeometry x="580" y="1150" width="105" height="40" as="geometry" />
        </mxCell>
        <mxCell id="PcMFCGU954VmmF4n1X1V-79" style="edgeStyle=orthogonalEdgeStyle;rounded=0;orthogonalLoop=1;jettySize=auto;html=1;exitX=0;exitY=1;exitDx=0;exitDy=0;entryX=0.444;entryY=-0.012;entryDx=0;entryDy=0;entryPerimeter=0;" edge="1" parent="1" source="PcMFCGU954VmmF4n1X1V-72" target="PcMFCGU954VmmF4n1X1V-76">
          <mxGeometry relative="1" as="geometry">
            <Array as="points">
              <mxPoint x="467" y="1098" />
            </Array>
          </mxGeometry>
        </mxCell>
        <mxCell id="PcMFCGU954VmmF4n1X1V-80" value="T" style="text;html=1;align=center;verticalAlign=middle;resizable=0;points=[];autosize=1;strokeColor=none;fillColor=none;" vertex="1" parent="1">
          <mxGeometry x="475" y="1088" width="30" height="30" as="geometry" />
        </mxCell>
        <mxCell id="PcMFCGU954VmmF4n1X1V-81" value="F" style="text;html=1;align=center;verticalAlign=middle;resizable=0;points=[];autosize=1;strokeColor=none;fillColor=none;" vertex="1" parent="1">
          <mxGeometry x="595" y="1092" width="30" height="30" as="geometry" />
        </mxCell>
        <mxCell id="PcMFCGU954VmmF4n1X1V-82" value="" style="edgeStyle=orthogonalEdgeStyle;rounded=0;orthogonalLoop=1;jettySize=auto;html=1;" edge="1" parent="1" source="PcMFCGU954VmmF4n1X1V-83" target="PcMFCGU954VmmF4n1X1V-86">
          <mxGeometry relative="1" as="geometry" />
        </mxCell>
        <mxCell id="PcMFCGU954VmmF4n1X1V-83" value="int i=1" style="rounded=1;whiteSpace=wrap;html=1;" vertex="1" parent="1">
          <mxGeometry x="525" y="1210" width="50" height="30" as="geometry" />
        </mxCell>
        <mxCell id="PcMFCGU954VmmF4n1X1V-84" value="" style="edgeStyle=orthogonalEdgeStyle;rounded=0;orthogonalLoop=1;jettySize=auto;html=1;" edge="1" parent="1" source="PcMFCGU954VmmF4n1X1V-86" target="PcMFCGU954VmmF4n1X1V-88">
          <mxGeometry relative="1" as="geometry" />
        </mxCell>
        <mxCell id="PcMFCGU954VmmF4n1X1V-85" style="edgeStyle=orthogonalEdgeStyle;rounded=0;orthogonalLoop=1;jettySize=auto;html=1;entryX=0;entryY=0.5;entryDx=0;entryDy=0;" edge="1" parent="1" source="PcMFCGU954VmmF4n1X1V-86" target="PcMFCGU954VmmF4n1X1V-92">
          <mxGeometry relative="1" as="geometry" />
        </mxCell>
        <mxCell id="PcMFCGU954VmmF4n1X1V-86" value="i&amp;lt;m" style="rhombus;whiteSpace=wrap;html=1;rounded=1;" vertex="1" parent="1">
          <mxGeometry x="510" y="1290" width="80" height="35" as="geometry" />
        </mxCell>
        <mxCell id="PcMFCGU954VmmF4n1X1V-87" style="edgeStyle=orthogonalEdgeStyle;rounded=0;orthogonalLoop=1;jettySize=auto;html=1;exitX=0.5;exitY=1;exitDx=0;exitDy=0;entryX=0.5;entryY=0;entryDx=0;entryDy=0;" edge="1" parent="1" source="PcMFCGU954VmmF4n1X1V-88" target="PcMFCGU954VmmF4n1X1V-90">
          <mxGeometry relative="1" as="geometry" />
        </mxCell>
        <mxCell id="PcMFCGU954VmmF4n1X1V-88" value="totalDays+=maxA[i-1];" style="whiteSpace=wrap;html=1;rounded=1;" vertex="1" parent="1">
          <mxGeometry x="485" y="1360" width="130" height="37.5" as="geometry" />
        </mxCell>
        <mxCell id="PcMFCGU954VmmF4n1X1V-89" style="edgeStyle=orthogonalEdgeStyle;rounded=0;orthogonalLoop=1;jettySize=auto;html=1;exitX=0;exitY=0.5;exitDx=0;exitDy=0;entryX=0.5;entryY=0;entryDx=0;entryDy=0;" edge="1" parent="1" source="PcMFCGU954VmmF4n1X1V-90" target="PcMFCGU954VmmF4n1X1V-86">
          <mxGeometry relative="1" as="geometry">
            <Array as="points">
              <mxPoint x="450" y="1435" />
              <mxPoint x="450" y="1270" />
              <mxPoint x="550" y="1270" />
            </Array>
          </mxGeometry>
        </mxCell>
        <mxCell id="PcMFCGU954VmmF4n1X1V-90" value="i++" style="rounded=1;whiteSpace=wrap;html=1;" vertex="1" parent="1">
          <mxGeometry x="525" y="1420" width="50" height="30" as="geometry" />
        </mxCell>
        <mxCell id="PcMFCGU954VmmF4n1X1V-91" value="" style="edgeStyle=orthogonalEdgeStyle;rounded=0;orthogonalLoop=1;jettySize=auto;html=1;" edge="1" parent="1" source="PcMFCGU954VmmF4n1X1V-92" target="PcMFCGU954VmmF4n1X1V-93">
          <mxGeometry relative="1" as="geometry" />
        </mxCell>
        <mxCell id="PcMFCGU954VmmF4n1X1V-92" value="totalDays+=(d-1);&lt;br&gt;&amp;nbsp;&amp;nbsp; &amp;nbsp;maxA[1]=28;&lt;br&gt;&amp;nbsp;&amp;nbsp; &amp;nbsp;return (totalDays%7);" style="whiteSpace=wrap;html=1;rounded=1;" vertex="1" parent="1">
          <mxGeometry x="660" y="1276.88" width="140" height="61.25" as="geometry" />
        </mxCell>
        <mxCell id="PcMFCGU954VmmF4n1X1V-93" value="&lt;div&gt;end&lt;/div&gt;" style="ellipse;whiteSpace=wrap;html=1;rounded=1;" vertex="1" parent="1">
          <mxGeometry x="695" y="1390" width="70" height="31.24" as="geometry" />
        </mxCell>
        <mxCell id="PcMFCGU954VmmF4n1X1V-94" style="edgeStyle=orthogonalEdgeStyle;rounded=0;orthogonalLoop=1;jettySize=auto;html=1;exitX=0.5;exitY=1;exitDx=0;exitDy=0;entryX=0.5;entryY=0;entryDx=0;entryDy=0;curved=1;" edge="1" parent="1" source="PcMFCGU954VmmF4n1X1V-95" target="PcMFCGU954VmmF4n1X1V-97">
          <mxGeometry relative="1" as="geometry" />
        </mxCell>
        <mxCell id="PcMFCGU954VmmF4n1X1V-95" value="1" style="ellipse;whiteSpace=wrap;html=1;" vertex="1" parent="1">
          <mxGeometry x="1000" y="908" width="60" height="42" as="geometry" />
        </mxCell>
        <mxCell id="PcMFCGU954VmmF4n1X1V-96" style="edgeStyle=orthogonalEdgeStyle;rounded=0;orthogonalLoop=1;jettySize=auto;html=1;exitX=0.5;exitY=1;exitDx=0;exitDy=0;entryX=0.5;entryY=0;entryDx=0;entryDy=0;curved=1;" edge="1" parent="1" source="PcMFCGU954VmmF4n1X1V-97" target="PcMFCGU954VmmF4n1X1V-100">
          <mxGeometry relative="1" as="geometry" />
        </mxCell>
        <mxCell id="PcMFCGU954VmmF4n1X1V-97" value="2" style="ellipse;whiteSpace=wrap;html=1;" vertex="1" parent="1">
          <mxGeometry x="1000" y="980" width="60" height="42" as="geometry" />
        </mxCell>
        <mxCell id="PcMFCGU954VmmF4n1X1V-98" style="edgeStyle=orthogonalEdgeStyle;rounded=0;orthogonalLoop=1;jettySize=auto;html=1;exitX=0.5;exitY=1;exitDx=0;exitDy=0;entryX=0.5;entryY=0;entryDx=0;entryDy=0;curved=1;" edge="1" parent="1" source="PcMFCGU954VmmF4n1X1V-100" target="PcMFCGU954VmmF4n1X1V-103">
          <mxGeometry relative="1" as="geometry" />
        </mxCell>
        <mxCell id="PcMFCGU954VmmF4n1X1V-99" style="edgeStyle=orthogonalEdgeStyle;rounded=0;orthogonalLoop=1;jettySize=auto;html=1;exitX=1;exitY=0.5;exitDx=0;exitDy=0;entryX=0;entryY=0.5;entryDx=0;entryDy=0;curved=1;" edge="1" parent="1" source="PcMFCGU954VmmF4n1X1V-100" target="PcMFCGU954VmmF4n1X1V-112">
          <mxGeometry relative="1" as="geometry" />
        </mxCell>
        <mxCell id="PcMFCGU954VmmF4n1X1V-100" value="3" style="ellipse;whiteSpace=wrap;html=1;" vertex="1" parent="1">
          <mxGeometry x="1000" y="1050" width="60" height="42" as="geometry" />
        </mxCell>
        <mxCell id="PcMFCGU954VmmF4n1X1V-101" style="edgeStyle=orthogonalEdgeStyle;rounded=0;orthogonalLoop=1;jettySize=auto;html=1;exitX=0;exitY=0.5;exitDx=0;exitDy=0;curved=1;" edge="1" parent="1" source="PcMFCGU954VmmF4n1X1V-103" target="PcMFCGU954VmmF4n1X1V-105">
          <mxGeometry relative="1" as="geometry" />
        </mxCell>
        <mxCell id="PcMFCGU954VmmF4n1X1V-102" style="edgeStyle=orthogonalEdgeStyle;rounded=0;orthogonalLoop=1;jettySize=auto;html=1;exitX=1;exitY=0.5;exitDx=0;exitDy=0;entryX=0.5;entryY=0;entryDx=0;entryDy=0;curved=1;" edge="1" parent="1" source="PcMFCGU954VmmF4n1X1V-103" target="PcMFCGU954VmmF4n1X1V-107">
          <mxGeometry relative="1" as="geometry" />
        </mxCell>
        <mxCell id="PcMFCGU954VmmF4n1X1V-103" value="4" style="ellipse;whiteSpace=wrap;html=1;" vertex="1" parent="1">
          <mxGeometry x="1000" y="1118" width="60" height="42" as="geometry" />
        </mxCell>
        <mxCell id="PcMFCGU954VmmF4n1X1V-104" style="edgeStyle=orthogonalEdgeStyle;rounded=0;orthogonalLoop=1;jettySize=auto;html=1;exitX=0.5;exitY=1;exitDx=0;exitDy=0;curved=1;" edge="1" parent="1" source="PcMFCGU954VmmF4n1X1V-105" target="PcMFCGU954VmmF4n1X1V-109">
          <mxGeometry relative="1" as="geometry" />
        </mxCell>
        <mxCell id="PcMFCGU954VmmF4n1X1V-105" value="5" style="ellipse;whiteSpace=wrap;html=1;" vertex="1" parent="1">
          <mxGeometry x="940" y="1170" width="60" height="42" as="geometry" />
        </mxCell>
        <mxCell id="PcMFCGU954VmmF4n1X1V-106" style="edgeStyle=orthogonalEdgeStyle;rounded=0;orthogonalLoop=1;jettySize=auto;html=1;exitX=0.5;exitY=1;exitDx=0;exitDy=0;curved=1;" edge="1" parent="1" source="PcMFCGU954VmmF4n1X1V-107" target="PcMFCGU954VmmF4n1X1V-109">
          <mxGeometry relative="1" as="geometry" />
        </mxCell>
        <mxCell id="PcMFCGU954VmmF4n1X1V-107" value="6" style="ellipse;whiteSpace=wrap;html=1;" vertex="1" parent="1">
          <mxGeometry x="1060" y="1168" width="60" height="42" as="geometry" />
        </mxCell>
        <mxCell id="PcMFCGU954VmmF4n1X1V-108" style="edgeStyle=orthogonalEdgeStyle;rounded=0;orthogonalLoop=1;jettySize=auto;html=1;exitX=0;exitY=0.5;exitDx=0;exitDy=0;entryX=0;entryY=0.5;entryDx=0;entryDy=0;curved=1;" edge="1" parent="1" source="PcMFCGU954VmmF4n1X1V-109" target="PcMFCGU954VmmF4n1X1V-100">
          <mxGeometry relative="1" as="geometry">
            <Array as="points">
              <mxPoint x="930" y="1289" />
              <mxPoint x="930" y="1071" />
            </Array>
          </mxGeometry>
        </mxCell>
        <mxCell id="PcMFCGU954VmmF4n1X1V-109" value="7" style="ellipse;whiteSpace=wrap;html=1;" vertex="1" parent="1">
          <mxGeometry x="1000" y="1268" width="60" height="42" as="geometry" />
        </mxCell>
        <mxCell id="PcMFCGU954VmmF4n1X1V-110" style="edgeStyle=orthogonalEdgeStyle;rounded=0;orthogonalLoop=1;jettySize=auto;html=1;exitX=0.5;exitY=1;exitDx=0;exitDy=0;entryX=0.5;entryY=0;entryDx=0;entryDy=0;curved=1;" edge="1" parent="1" source="PcMFCGU954VmmF4n1X1V-112" target="PcMFCGU954VmmF4n1X1V-114">
          <mxGeometry relative="1" as="geometry" />
        </mxCell>
        <mxCell id="PcMFCGU954VmmF4n1X1V-111" style="edgeStyle=orthogonalEdgeStyle;rounded=0;orthogonalLoop=1;jettySize=auto;html=1;curved=1;" edge="1" parent="1" source="PcMFCGU954VmmF4n1X1V-112" target="PcMFCGU954VmmF4n1X1V-116">
          <mxGeometry relative="1" as="geometry" />
        </mxCell>
        <mxCell id="PcMFCGU954VmmF4n1X1V-112" value="8" style="ellipse;whiteSpace=wrap;html=1;" vertex="1" parent="1">
          <mxGeometry x="1170" y="990" width="60" height="42" as="geometry" />
        </mxCell>
        <mxCell id="PcMFCGU954VmmF4n1X1V-113" style="edgeStyle=orthogonalEdgeStyle;rounded=0;orthogonalLoop=1;jettySize=auto;html=1;exitX=0.5;exitY=1;exitDx=0;exitDy=0;entryX=0.5;entryY=0;entryDx=0;entryDy=0;curved=1;" edge="1" parent="1" source="PcMFCGU954VmmF4n1X1V-114" target="PcMFCGU954VmmF4n1X1V-118">
          <mxGeometry relative="1" as="geometry" />
        </mxCell>
        <mxCell id="PcMFCGU954VmmF4n1X1V-114" value="9" style="ellipse;whiteSpace=wrap;html=1;" vertex="1" parent="1">
          <mxGeometry x="1130" y="1084" width="60" height="42" as="geometry" />
        </mxCell>
        <mxCell id="PcMFCGU954VmmF4n1X1V-115" style="edgeStyle=orthogonalEdgeStyle;rounded=0;orthogonalLoop=1;jettySize=auto;html=1;exitX=0.5;exitY=1;exitDx=0;exitDy=0;curved=1;" edge="1" parent="1" source="PcMFCGU954VmmF4n1X1V-116" target="PcMFCGU954VmmF4n1X1V-118">
          <mxGeometry relative="1" as="geometry" />
        </mxCell>
        <mxCell id="PcMFCGU954VmmF4n1X1V-116" value="10" style="ellipse;whiteSpace=wrap;html=1;" vertex="1" parent="1">
          <mxGeometry x="1220" y="1084" width="60" height="42" as="geometry" />
        </mxCell>
        <mxCell id="PcMFCGU954VmmF4n1X1V-117" style="edgeStyle=orthogonalEdgeStyle;rounded=0;orthogonalLoop=1;jettySize=auto;html=1;exitX=0.5;exitY=1;exitDx=0;exitDy=0;curved=1;" edge="1" parent="1" source="PcMFCGU954VmmF4n1X1V-118" target="PcMFCGU954VmmF4n1X1V-121">
          <mxGeometry relative="1" as="geometry" />
        </mxCell>
        <mxCell id="PcMFCGU954VmmF4n1X1V-118" value="11" style="ellipse;whiteSpace=wrap;html=1;" vertex="1" parent="1">
          <mxGeometry x="1170" y="1174.88" width="60" height="42" as="geometry" />
        </mxCell>
        <mxCell id="PcMFCGU954VmmF4n1X1V-119" style="edgeStyle=orthogonalEdgeStyle;rounded=0;orthogonalLoop=1;jettySize=auto;html=1;exitX=0.5;exitY=1;exitDx=0;exitDy=0;entryX=0.5;entryY=0;entryDx=0;entryDy=0;curved=1;" edge="1" parent="1" source="PcMFCGU954VmmF4n1X1V-121" target="PcMFCGU954VmmF4n1X1V-123">
          <mxGeometry relative="1" as="geometry" />
        </mxCell>
        <mxCell id="PcMFCGU954VmmF4n1X1V-120" style="edgeStyle=orthogonalEdgeStyle;rounded=0;orthogonalLoop=1;jettySize=auto;html=1;exitX=1;exitY=0.5;exitDx=0;exitDy=0;entryX=0;entryY=0.5;entryDx=0;entryDy=0;curved=1;" edge="1" parent="1" source="PcMFCGU954VmmF4n1X1V-121" target="PcMFCGU954VmmF4n1X1V-127">
          <mxGeometry relative="1" as="geometry" />
        </mxCell>
        <mxCell id="PcMFCGU954VmmF4n1X1V-121" value="12" style="ellipse;whiteSpace=wrap;html=1;" vertex="1" parent="1">
          <mxGeometry x="1170" y="1250" width="60" height="42" as="geometry" />
        </mxCell>
        <mxCell id="PcMFCGU954VmmF4n1X1V-122" style="edgeStyle=orthogonalEdgeStyle;rounded=0;orthogonalLoop=1;jettySize=auto;html=1;exitX=0.5;exitY=1;exitDx=0;exitDy=0;entryX=0.5;entryY=0;entryDx=0;entryDy=0;curved=1;" edge="1" parent="1" source="PcMFCGU954VmmF4n1X1V-123" target="PcMFCGU954VmmF4n1X1V-125">
          <mxGeometry relative="1" as="geometry" />
        </mxCell>
        <mxCell id="PcMFCGU954VmmF4n1X1V-123" value="13" style="ellipse;whiteSpace=wrap;html=1;" vertex="1" parent="1">
          <mxGeometry x="1170" y="1320.13" width="60" height="42" as="geometry" />
        </mxCell>
        <mxCell id="PcMFCGU954VmmF4n1X1V-124" style="edgeStyle=orthogonalEdgeStyle;rounded=0;orthogonalLoop=1;jettySize=auto;html=1;exitX=0;exitY=0.5;exitDx=0;exitDy=0;entryX=0.5;entryY=0;entryDx=0;entryDy=0;curved=1;" edge="1" parent="1" source="PcMFCGU954VmmF4n1X1V-125" target="PcMFCGU954VmmF4n1X1V-121">
          <mxGeometry relative="1" as="geometry">
            <Array as="points">
              <mxPoint x="1150" y="1411" />
              <mxPoint x="1150" y="1230" />
              <mxPoint x="1200" y="1230" />
            </Array>
          </mxGeometry>
        </mxCell>
        <mxCell id="PcMFCGU954VmmF4n1X1V-125" value="16" style="ellipse;whiteSpace=wrap;html=1;" vertex="1" parent="1">
          <mxGeometry x="1170" y="1390" width="60" height="42" as="geometry" />
        </mxCell>
        <mxCell id="PcMFCGU954VmmF4n1X1V-126" style="edgeStyle=orthogonalEdgeStyle;rounded=0;orthogonalLoop=1;jettySize=auto;html=1;exitX=0.5;exitY=1;exitDx=0;exitDy=0;curved=1;" edge="1" parent="1" source="PcMFCGU954VmmF4n1X1V-127" target="PcMFCGU954VmmF4n1X1V-128">
          <mxGeometry relative="1" as="geometry" />
        </mxCell>
        <mxCell id="PcMFCGU954VmmF4n1X1V-127" value="14" style="ellipse;whiteSpace=wrap;html=1;" vertex="1" parent="1">
          <mxGeometry x="1270" y="1250" width="60" height="42" as="geometry" />
        </mxCell>
        <mxCell id="PcMFCGU954VmmF4n1X1V-128" value="结束" style="ellipse;whiteSpace=wrap;html=1;" vertex="1" parent="1">
          <mxGeometry x="1270" y="1320.13" width="60" height="42" as="geometry" />
        </mxCell>
        <mxCell id="PcMFCGU954VmmF4n1X1V-129" style="edgeStyle=orthogonalEdgeStyle;rounded=0;orthogonalLoop=1;jettySize=auto;html=1;exitX=0.5;exitY=1;exitDx=0;exitDy=0;" edge="1" parent="1" source="PcMFCGU954VmmF4n1X1V-130" target="PcMFCGU954VmmF4n1X1V-95">
          <mxGeometry relative="1" as="geometry" />
        </mxCell>
        <mxCell id="PcMFCGU954VmmF4n1X1V-130" value="开始" style="ellipse;whiteSpace=wrap;html=1;" vertex="1" parent="1">
          <mxGeometry x="1000" y="840" width="60" height="42" as="geometry" />
        </mxCell>
        <mxCell id="PcMFCGU954VmmF4n1X1V-131" style="edgeStyle=orthogonalEdgeStyle;rounded=0;orthogonalLoop=1;jettySize=auto;html=1;exitX=0.5;exitY=1;exitDx=0;exitDy=0;entryX=0.5;entryY=0;entryDx=0;entryDy=0;" edge="1" parent="1" source="PcMFCGU954VmmF4n1X1V-132" target="PcMFCGU954VmmF4n1X1V-30">
          <mxGeometry relative="1" as="geometry" />
        </mxCell>
        <mxCell id="PcMFCGU954VmmF4n1X1V-132" value="开始" style="ellipse;whiteSpace=wrap;html=1;" vertex="1" parent="1">
          <mxGeometry x="750" y="50" width="60" height="40" as="geometry" />
        </mxCell>
      </root>
    </mxGraphModel>
  </diagram>
</mxfile>
